<?xml version="1.0" encoding="UTF-8"?>
<svg version="1.1" xmlns="http://www.w3.org/2000/svg" width="512" height="512">
<path d="M0 0 C2.39706663 -0.00407429 4.79413137 -0.00942094 7.19119263 -0.01593018 C13.6498546 -0.02950761 20.10837144 -0.02434493 26.56703568 -0.01479292 C30.61263823 -0.00942593 34.65822264 -0.01047791 38.7038269 -0.0132637 C39.37892994 -0.0137234 40.05403297 -0.0141831 40.74959368 -0.01465673 C42.12176491 -0.01561607 43.49393613 -0.01658871 44.86610734 -0.0175745 C57.68278 -0.02609511 70.4993879 -0.01634689 83.31604993 -0.0001734 C94.27355785 0.01322674 105.23097036 0.01089771 116.18847656 -0.00292969 C128.96450776 -0.01904473 141.74048246 -0.02527144 154.51652241 -0.0160929 C155.88317679 -0.01513742 157.24983119 -0.0141943 158.6164856 -0.0132637 C159.28861412 -0.01280088 159.96074265 -0.01233805 160.65323871 -0.0118612 C165.35184058 -0.009289 170.05039522 -0.0137534 174.74899292 -0.02070236 C181.09230904 -0.02943011 187.43544671 -0.02324487 193.77874374 -0.00601959 C196.09327779 -0.00208559 198.40782711 -0.00313514 200.72235489 -0.00980759 C217.03828578 -0.0524726 233.24661839 0.52897637 248.78515625 6.07568359 C249.51831055 6.3305957 250.25146484 6.58550781 251.00683594 6.84814453 C281.95409625 17.98915824 306.7016769 40.57353615 320.76513672 70.35498047 C330.87702243 93.32600725 331.81215808 116.80082051 331.80541992 141.49804688 C331.80841739 143.70408688 331.81182126 145.91012636 331.81559753 148.11616516 C331.82438226 154.07310341 331.82677332 160.03002727 331.82741332 165.98697138 C331.82812701 169.71898578 331.83026734 173.45099659 331.83291054 177.1830101 C331.8416706 189.56060326 331.84633252 201.9381888 331.84558006 214.31578495 C331.84552013 215.31310177 331.84552013 215.31310177 331.84545898 216.33056641 C331.8454181 216.99627273 331.84537722 217.66197905 331.8453351 218.34785829 C331.84492913 229.12287138 331.85449068 239.89784944 331.86859735 250.67285241 C331.88302684 261.78367563 331.8896816 272.89448445 331.88900357 284.00531757 C331.88875004 290.22423492 331.89152098 296.44311259 331.90218163 302.66202164 C331.91194677 308.51770898 331.91188481 314.37331938 331.90466499 320.22900963 C331.9036295 322.36209795 331.90591938 324.49519127 331.91202545 326.6282711 C331.9394059 336.86709145 331.77457652 347.01231916 330.7816925 357.209198 C330.70573229 357.99356771 330.62977208 358.77793741 330.55151004 359.5860759 C327.89288312 383.9477755 317.38832121 405.79736099 301.66015625 424.38818359 C301.14710938 425.02369141 300.6340625 425.65919922 300.10546875 426.31396484 C287.00971201 442.27663049 268.04882759 453.00285325 248.78515625 459.70068359 C248.1396582 459.93110352 247.49416016 460.16152344 246.82910156 460.39892578 C230.69936562 465.66719925 214.09995147 465.82474041 197.3203125 465.77636719 C194.92324587 465.78044147 192.52618113 465.78578812 190.12911987 465.79229736 C183.6704579 465.8058748 177.21194106 465.80071211 170.75327682 465.79116011 C166.70767427 465.78579312 162.66208986 465.78684509 158.6164856 465.78963089 C157.94138256 465.79009059 157.26627953 465.79055029 156.57071882 465.79102392 C155.19854759 465.79198325 153.82637637 465.7929559 152.45420516 465.79394169 C139.6375325 465.80246229 126.8209246 465.79271407 114.00426257 465.77654059 C103.04675465 465.76314045 92.08934214 465.76546948 81.13183594 465.77929688 C68.35580474 465.79541192 55.57983004 465.80163863 42.80379009 465.79246008 C41.43713571 465.7915046 40.07048131 465.79056149 38.7038269 465.78963089 C37.69563411 465.78893665 37.69563411 465.78893665 36.66707379 465.78822839 C31.96847192 465.78565619 27.26991728 465.79012058 22.57131958 465.79706955 C16.22800346 465.8057973 9.88486579 465.79961205 3.54156876 465.78238678 C1.22703471 465.77845277 -1.08751461 465.77950233 -3.40204239 465.78617477 C-19.71797328 465.82883979 -35.92630589 465.24739082 -51.46484375 459.70068359 C-52.19799805 459.44577148 -52.93115234 459.19085938 -53.68652344 458.92822266 C-76.0364684 450.88224247 -94.91792619 437.32032631 -109.33984375 418.38818359 C-109.94570312 417.59798828 -110.5515625 416.80779297 -111.17578125 415.99365234 C-131.44191684 388.34550809 -134.49418068 357.53431512 -134.48510742 324.27832031 C-134.48810489 322.07228031 -134.49150876 319.86624083 -134.49528503 317.66020203 C-134.50406976 311.70326377 -134.50646082 305.74633991 -134.50710082 299.78939581 C-134.50781451 296.05738141 -134.50995484 292.32537059 -134.51259804 288.59335709 C-134.5213581 276.21576393 -134.52602002 263.83817838 -134.52526756 251.46058224 C-134.52522761 250.79570436 -134.52518765 250.13082648 -134.52514648 249.44580078 C-134.5251056 248.78009446 -134.52506472 248.11438813 -134.5250226 247.42850889 C-134.52461663 236.65349581 -134.53417818 225.87851774 -134.54828485 215.10351478 C-134.56271434 203.99269156 -134.5693691 192.88188274 -134.56869107 181.77104962 C-134.56843754 175.55213227 -134.57120848 169.3332546 -134.58186913 163.11434555 C-134.59163427 157.2586582 -134.59157231 151.4030478 -134.58435249 145.54735756 C-134.583317 143.41426924 -134.58560688 141.28117591 -134.59171295 139.14809608 C-134.6190934 128.90927574 -134.45426402 118.76404803 -133.46138 108.56716919 C-133.38541979 107.78279948 -133.30945958 106.99842977 -133.23119754 106.19029129 C-130.57257062 81.82859168 -120.06800871 59.97900619 -104.33984375 41.38818359 C-103.82679687 40.75267578 -103.31375 40.11716797 -102.78515625 39.46240234 C-89.68939951 23.4997367 -70.72851509 12.77351394 -51.46484375 6.07568359 C-50.8193457 5.84526367 -50.17384766 5.61484375 -49.50878906 5.37744141 C-33.37905312 0.10916794 -16.77963897 -0.04837323 0 0 Z " fill="#FEFC00" transform="translate(157.33984375,22.61181640625)"/>
<path d="M0 0 C1.14210938 0.39574219 2.28421875 0.79148437 3.4609375 1.19921875 C22.36897521 8.36712725 35.9891994 23.13349909 44.35546875 41.20703125 C51.24218542 56.81611549 51.66560082 71.04750275 51 88 C50.96036133 89.01980957 50.92072266 90.03961914 50.87988281 91.09033203 C50.68827336 95.76177045 50.46962354 100.43174499 50.2421875 105.1015625 C50.2019043 105.93075195 50.16162109 106.75994141 50.12011719 107.61425781 C50.04251693 109.15553771 49.96016884 110.69658921 49.87207031 112.23730469 C49.76528467 114.19869227 49.69380923 116.16191322 49.625 118.125 C49.57601562 119.17945313 49.52703125 120.23390625 49.4765625 121.3203125 C49.77815949 124.22879967 49.77815949 124.22879967 52.3984375 126.3046875 C58.29585925 130.14775212 65.14506185 129.73105739 72 129 C75.18214689 128.1152442 78.1811478 127.011998 81.26171875 125.828125 C85.51889815 124.54064706 88.68718759 125.08087604 93 126 C94 127 94 127 94.375 129.8125 C94 133 94 133 92.21484375 134.921875 C87.51699544 137.95863721 82.44901518 139.59676448 77.1875 141.4375 C64.12659159 145.53813234 64.12659159 145.53813234 54.5 154.625 C51.18001823 162.52477805 52.54255102 170.47560442 55.68359375 178.19140625 C67.1878389 202.73607171 87.36375744 225.15672272 113 235 C118.25331593 236.68295866 123.59686135 237.90787623 129 239 C120.79821273 247.91498616 108.80701069 249.77740656 97.3359375 252.03710938 C91.55278148 253.26894754 88.17887966 254.76788621 84 259 C81.8003534 262.77082274 81.59849812 266.73252287 81.24609375 271.01171875 C81 273 81 273 80 275 C77.39547729 274.85913398 74.79149803 274.71251536 72.1875 274.5625 C71.08051758 274.50352539 71.08051758 274.50352539 69.95117188 274.44335938 C66.76928658 274.25618965 64.03837622 274.01279207 61 273 C38.63252509 271.60872166 22.16907242 278.20568033 4.48144531 291.35839844 C-1.06523444 295.44504894 -6.48280712 298.67090484 -13 301 C-14.17949219 301.45246094 -14.17949219 301.45246094 -15.3828125 301.9140625 C-31.11840715 307.62154937 -48.65160586 305.69002279 -63.9140625 299.47265625 C-68.70988812 297.18401541 -72.77623209 294.19653735 -77 291 C-94.65421085 278.19511036 -110.82186472 271.32150589 -133 273 C-135.58735289 273.4263666 -138.11622426 273.95377918 -140.66796875 274.5546875 C-144.46953368 275.28061447 -148.14102415 275.12448309 -152 275 C-153.56043336 271.77510438 -154.13344988 269.02898834 -154.375 265.5 C-154.80231262 261.21263006 -155.69417049 258.95784746 -159 256 C-163.71914286 253.7209993 -167.92510105 252.48977801 -173.125 251.625 C-182.61847206 249.89405409 -192.37427366 247.14294622 -200 241 C-200.33 240.34 -200.66 239.68 -201 239 C-200.030625 238.8040625 -199.06125 238.608125 -198.0625 238.40625 C-170.89700127 232.51394759 -150.79166413 215.55719194 -135.7265625 192.58984375 C-128.93499543 181.79655408 -123.51585167 172.05697161 -125 159 C-126.61624035 153.63177314 -129.1648934 150.04582663 -134.125 147.375 C-140.01918766 144.80185766 -146.14343792 142.68003718 -152.22314453 140.58544922 C-157.3101468 138.79609851 -162.10859087 136.89140913 -166 133 C-166.25 130.0625 -166.25 130.0625 -166 127 C-162.27573524 124.51715683 -159.31579882 124.45953164 -155 125 C-152.63477442 125.92203709 -150.29598193 126.91698965 -148 128 C-141.05198285 129.75466874 -133.06559 130.215665 -126.375 127.5625 C-125.59125 127.046875 -124.8075 126.53125 -124 126 C-123.01 125.67 -122.02 125.34 -121 125 C-121.06058594 124.32461182 -121.12117188 123.64922363 -121.18359375 122.95336914 C-122.37441966 109.26688633 -123.23591035 95.59835829 -123.35449219 81.85983276 C-123.36792048 80.47833712 -123.38816748 79.0968869 -123.41601562 77.71560669 C-123.84147008 54.86947218 -115.78357076 33.87567612 -100.17578125 17.0859375 C-74.93457546 -7.11299228 -32.15436891 -11.85640425 0 0 Z " fill="#FEFEFE" transform="translate(292,106)"/>
<path d="M0 0 C2.49718138 1.94140626 4.88507804 3.9547999 7.25 6.0546875 C7.93578125 6.64636719 8.6215625 7.23804687 9.328125 7.84765625 C15.63030232 13.66600499 19.89816163 20.74118135 24.25 28.0546875 C24.6728125 28.76496094 25.095625 29.47523438 25.53125 30.20703125 C29.05281203 36.69636128 31.11300144 44.01858341 33.25 51.0546875 C33.62382812 52.22386719 33.99765625 53.39304687 34.3828125 54.59765625 C35.90178017 60.8970387 35.54706013 67.42905832 35.5 73.8671875 C35.49734131 74.90842773 35.49734131 74.90842773 35.49462891 75.97070312 C35.45267273 90.05506928 34.55655885 104.03002915 33.25 118.0546875 C41.17967039 117.82616674 47.69584477 117.17819329 54.9453125 113.921875 C60.02136572 112.01190243 65.04849159 112.37376086 70.0625 114.3046875 C74.29418996 116.62796826 76.70896149 118.43157198 78.25 123.0546875 C78.94670238 127.06864325 79.03378123 130.52589867 77.14453125 134.2109375 C69.87337477 143.54674335 57.45083421 146.52859084 46.5625 149.78125 C42.56048893 151.31975897 39.21735259 153.11998233 37.25 157.0546875 C35.46934217 167.98145144 40.53353057 176.5170806 46.40234375 185.26171875 C51.25711076 191.90822754 56.60828165 198.06883476 62.25 204.0546875 C62.83394531 204.69148437 63.41789062 205.32828125 64.01953125 205.984375 C74.63404052 217.17062599 89.73192609 225.61962926 105.234375 226.70703125 C108.57099232 227.28253307 110.63033007 228.97238576 113.25 231.0546875 C113.22405554 236.77543985 112.56750715 241.15498059 108.5 245.359375 C97.53043396 253.6246383 83.71274072 256.50600956 70.4296875 258.52734375 C68.05610388 258.90124925 68.05610388 258.90124925 66.25 261.0546875 C65.8653122 262.95817973 65.56398065 264.87906426 65.3125 266.8046875 C64.60799256 271.39499376 63.84468527 275.11076589 61.25 279.0546875 C57.85592496 281.31740419 56.60784744 281.32527069 52.625 281.3046875 C51.64273437 281.30984375 50.66046875 281.315 49.6484375 281.3203125 C46.90200502 281.10564881 44.61553607 280.70694151 41.96484375 280.05859375 C27.64027108 276.69572118 11.52256275 278.10152897 -1.125 285.6171875 C-5.80414271 288.65276037 -10.30785409 291.8933337 -14.8125 295.1796875 C-23.39789762 301.43979908 -32.48595876 306.18455745 -42.75 309.0546875 C-43.38421875 309.25964844 -44.0184375 309.46460938 -44.671875 309.67578125 C-62.55421343 314.70085697 -81.80656467 310.07547295 -97.7265625 301.47265625 C-102.85511086 298.51715784 -107.48785797 294.92406279 -112.14770508 291.28955078 C-117.05834281 287.47690201 -121.97704442 284.42362676 -127.75 282.0546875 C-128.95076172 281.52101563 -128.95076172 281.52101563 -130.17578125 280.9765625 C-141.28596381 276.99780213 -155.5305673 278.53120895 -166.890625 280.58984375 C-177.88333333 282.37690972 -177.88333333 282.37690972 -182.75 278.9296875 C-186.64912931 273.32468911 -187.16147878 267.67767121 -187.75 261.0546875 C-193.01409409 259.21072772 -198.26657312 257.62471711 -203.6887207 256.31884766 C-226.06134425 250.88388552 -226.06134425 250.88388552 -232.7578125 241.98828125 C-234.52041102 238.55329595 -235.29297338 234.89269109 -234.75 231.0546875 C-232.559238 228.31591289 -230.79417751 227.58176577 -227.390625 226.94921875 C-226.52945068 226.77503418 -225.66827637 226.60084961 -224.78100586 226.42138672 C-223.40440796 226.14705811 -223.40440796 226.14705811 -222 225.8671875 C-206.01652871 222.32987308 -195.20062793 215.54011977 -183.75 204.0546875 C-183.10804688 203.47203125 -182.46609375 202.889375 -181.8046875 202.2890625 C-172.8450077 194.0378225 -166.16622301 182.85053742 -160.75 172.0546875 C-160.37746094 171.40628906 -160.00492187 170.75789062 -159.62109375 170.08984375 C-158.52125231 167.52025904 -158.37828816 165.40737945 -158.3125 162.6171875 C-158.25255859 161.22693359 -158.25255859 161.22693359 -158.19140625 159.80859375 C-158.99638443 155.83999503 -160.58319336 154.54552636 -163.75 152.0546875 C-166.58786686 150.62706419 -169.50798227 149.55126238 -172.5 148.4921875 C-174.11629944 147.88912933 -175.73219054 147.2849755 -177.34765625 146.6796875 C-178.11352051 146.39738281 -178.87938477 146.11507812 -179.66845703 145.82421875 C-187.8826007 142.78750976 -194.75891583 139.54131376 -199.75 132.0546875 C-200.35321137 127.87137747 -200.20950776 124.14299536 -198.5625 120.2421875 C-195.31022574 116.31702891 -192.06635425 113.47614085 -186.875 112.81640625 C-182.22238333 112.65390677 -178.81399717 113.26980271 -174.5 115.0546875 C-168.24030047 117.57632533 -162.40920839 117.43581866 -155.75 117.0546875 C-155.63902496 111.45661314 -155.73104943 105.90438391 -156.109375 100.31665039 C-156.37818466 96.23177021 -156.57260719 92.14446125 -156.75 88.0546875 C-156.79753418 86.96172363 -156.84506836 85.86875977 -156.89404297 84.74267578 C-157.93336122 56.99325905 -152.98890952 32.11663885 -133.75 11.0546875 C-133.1725 10.38566406 -132.595 9.71664062 -132 9.02734375 C-119.080544 -5.03370211 -101.19774973 -12.49411841 -82.75 -15.9453125 C-81.8307373 -16.11732178 -80.91147461 -16.28933105 -79.96435547 -16.46655273 C-52.95783575 -20.48901857 -22.55864415 -15.95767725 0 0 Z M-126.75 16.0546875 C-142.17845808 33.38528425 -147.9605243 53.50619097 -147.9375 76.1796875 C-147.9382251 76.9009079 -147.9389502 77.6221283 -147.93969727 78.36520386 C-147.93808174 92.99396067 -147.05719199 107.48262577 -145.75 122.0546875 C-154.93509258 126.67084118 -163.39934864 127.5936161 -173.4375 124.6171875 C-175.64142623 123.87052182 -177.6696267 123.09487415 -179.75 122.0546875 C-185.63165736 121.58880468 -185.63165736 121.58880468 -190.75 124.0546875 C-191.41721536 126.96909449 -191.41721536 126.96909449 -190.75 130.0546875 C-186.77428355 134.00697144 -182.21586691 135.66606377 -177.0625 137.5546875 C-176.26175049 137.85874512 -175.46100098 138.16280273 -174.63598633 138.47607422 C-171.27487695 139.75185857 -167.9051964 140.99869655 -164.5234375 142.21875 C-158.29534383 144.53311714 -154.77644466 147.11983661 -150.9375 152.6796875 C-147.81475636 161.55485364 -149.8633214 169.77537215 -153.75 178.0546875 C-165.78861482 201.50815472 -184.76967591 222.46325631 -209.75 232.0546875 C-215.00331593 233.73764616 -220.34686135 234.96256373 -225.75 236.0546875 C-217.34475074 245.19348578 -204.32984158 247.93013724 -192.4375 249.9921875 C-187.97650201 250.8432523 -185.2528149 252.16486521 -181.75 255.0546875 C-179.57220218 258.32138423 -179.24237313 260.2797036 -178.6875 264.1171875 C-178.15937789 268.22415408 -178.15937789 268.22415408 -176.75 272.0546875 C-171.96434887 272.20906334 -167.72781617 272.15331917 -163.0625 271.0546875 C-145.84694842 267.37320801 -127.58852956 270.88242221 -112.75 280.0546875 C-109.63679199 282.24088568 -106.6187175 284.51092136 -103.6171875 286.84765625 C-88.16916172 298.73884776 -71.50273643 303.74905258 -52.0078125 301.77734375 C-37.95800231 299.63932916 -26.07600997 293.23511335 -15 284.6171875 C0.55177539 272.83915071 17.05880309 268.8301446 36.25 270.0546875 C39.14384361 270.47165758 41.97441627 270.99548494 44.83203125 271.609375 C48.35438295 272.25807951 51.67847004 272.18946222 55.25 272.0546875 C56.53580309 269.48308132 56.64503249 267.15862628 57 264.3046875 C57.95960409 258.58133452 58.71141028 255.74229165 63.25 252.0546875 C66.4777642 250.60822056 69.81398921 249.86243705 73.25 249.0546875 C90.70999562 245.90202118 90.70999562 245.90202118 104.25 236.0546875 C103.280625 235.85875 102.31125 235.6628125 101.3125 235.4609375 C86.36044726 232.21523882 73.72778377 226.29216188 62.25 216.0546875 C61.07630859 215.11109375 61.07630859 215.11109375 59.87890625 214.1484375 C46.07783906 202.6659496 30.25671456 182.6751361 27.90625 164.37890625 C27.58769776 158.62107451 28.26406964 153.94199079 31.4140625 149.04296875 C37.78349282 142.14501123 48.99166587 139.53326425 57.66259766 136.58935547 C62.16288532 135.02173513 65.83798891 133.53493881 69.25 130.0546875 C69.66809201 126.88620723 69.66809201 126.88620723 69.25 124.0546875 C64.55270216 121.2643202 60.45293176 122.05381818 55.25 123.0546875 C54.00633901 123.53989405 52.77551997 124.05978226 51.5625 124.6171875 C45.63932724 127.0639787 38.50680742 126.92028068 32.25 126.0546875 C29.65050667 124.55176204 27.37574376 123.18043126 25.25 121.0546875 C24.85134921 113.89069823 25.24331029 106.68196289 25.61132812 99.52294922 C25.85729563 94.70146657 26.06249404 89.87877386 26.25 85.0546875 C26.2922168 83.97944824 26.33443359 82.90420898 26.37792969 81.79638672 C26.85835775 67.75515788 26.78595996 55.11955299 21.25 42.0546875 C20.8159082 41.02311523 20.8159082 41.02311523 20.37304688 39.97070312 C12.51318676 21.86465594 -0.3888808 7.03253553 -18.75 -0.9453125 C-31.43437103 -5.58454953 -43.22045159 -8.13219161 -56.71264648 -8.13061523 C-58.78195436 -8.13278054 -60.85070962 -8.15090202 -62.91992188 -8.16992188 C-86.89364184 -8.27297779 -109.70307932 -1.32039072 -126.75 16.0546875 Z " fill="#080806" transform="translate(316.75,108.9453125)"/>
</svg>
